<svg width="16" height="16" viewBox="0 0 17 17" fill="none" xmlns="http://www.w3.org/2000/svg">
  <path fill-rule="evenodd" clip-rule="evenodd" d="M8 0C3.58 0 0 3.58 0 8C0 11.72 2.86 14.79 6.84 15.85C7.64 15.95 7.84 15.5 7.84 15.17C7.84 14.92 7.83 14.39 7.83 13.7C5.27 14.09 4.67 12.54 4.67 12.54C4.15 11.39 3.41 11.09 3.41 11.09C2.33 10.47 3.45 10.5 3.45 10.5C4.57 10.56 5.13 11.67 5.13 11.67C5.97 13 7.16 12.54 7.88 12.23C7.98 11.43 8.26 10.86 8.47 10.54C6.62 10.32 4.78 9.54 4.78 6.78C4.78 6.02 5 5.42 5.45 5.02C5.4 4.82 5.11 3.84 5.67 2.88C5.67 2.88 6.33 2.67 7.84 4.23C8.56 3.97 9.28 3.84 10 3.83C10.72 3.84 11.44 3.97 12.16 4.23C13.67 2.67 14.33 2.88 14.33 2.88C14.89 3.84 14.6 4.82 14.55 5.02C15 5.42 15.22 6.02 15.22 6.78C15.22 9.55 13.38 10.32 11.53 10.54C11.76 10.86 12 11.46 12 12.27C12 13.08 12 14.17 12 15.17C12 15.5 12.2 15.96 13 15.85C16.14 14.79 19 11.69 19 8C19 3.58 15.42 0 11 0H8Z" fill="white"/>
</svg>